<mxfile host="app.diagrams.net" agent="Mozilla/5.0 (Linux; arm_64; Android 14; 24074RPD2G) AppleWebKit/537.36 (KHTML, like Gecko) Chrome/126.0.6478.63 YaBrowser/24.7.9.63.01 Safari/537.36" version="24.7.13">
  <diagram name="Страница — 1" id="tG0Dio7kbklUVnzojoCp">
    <mxGraphModel>
      <root>
        <mxCell id="0" />
        <mxCell id="1" parent="0" />
      </root>
    </mxGraphModel>
  </diagram>
</mxfile>
